<svg width="1441" height="955" viewBox="0 0 1441 955" fill="none" xmlns="http://www.w3.org/2000/svg">
<rect x="0.5" y="0.5" width="1439" height="954" fill="#FFDE89" stroke="#F2F2F2"/>
<path opacity="0.5" fill-rule="evenodd" clip-rule="evenodd" d="M0 472.342V746.658V831H1440V627.001V362.999C1419.88 352.768 1397.12 347 1373 347C1343.82 347 1316.61 355.446 1293.68 370.028C1254.79 339.919 1205.99 322 1153 322C1049.51 322 961.978 390.356 933.1 484.382C889.43 463.619 840.572 452 789 452C725.583 452 666.27 469.569 615.662 500.105C597.227 478.038 569.503 464 538.5 464C518 464 498.934 470.138 483.038 480.676C460.729 435.26 414.015 404 360 404C303.818 404 255.535 437.818 234.396 486.207C202.576 453.976 158.371 434 109.5 434C68.0829 434 30.0167 448.347 0 472.342Z" fill="url(#paint0_linear)" fill-opacity="0.5"/>
<path d="M8.8727 954.937C6.34254 954.653 4.09793 953.425 2.49934 951.614C0.943825 949.851 0 947.536 0 945V693.8C21.7688 681.207 47.0427 674 74 674C103.183 674 130.393 682.446 153.319 697.028C192.208 666.919 241.012 649 294 649C397.494 649 485.022 717.356 513.9 811.382C557.57 790.619 606.428 779 658 779C721.417 779 780.73 796.569 831.338 827.105C849.773 805.038 877.497 791 908.5 791C929 791 948.066 797.138 963.962 807.676C986.271 762.26 1032.98 731 1087 731C1143.18 731 1191.46 764.818 1212.6 813.207C1244.42 780.976 1288.63 761 1337.5 761C1376.2 761 1411.98 773.529 1441 794.753V955H1192.84H1162.96H986.402H981.165H953.532H830.599H511.147H362.468H138.999H76.8531H10C9.6189 955 9.24274 954.979 8.8727 954.937Z" fill="url(#paint1_linear)"/>
<defs>
<linearGradient id="paint0_linear" x1="802.942" y1="395.19" x2="885.196" y2="1055.7" gradientUnits="userSpaceOnUse">
<stop stop-color="#FFA760"/>
<stop offset="1" stop-color="#FFDA7D"/>
</linearGradient>
<linearGradient id="paint1_linear" x1="803.5" y1="693" x2="833.5" y2="1094" gradientUnits="userSpaceOnUse">
<stop stop-color="#FFA05C"/>
<stop offset="1" stop-color="#FFDA7D"/>
</linearGradient>
</defs>
</svg>
