<svg width="1920" height="1080" viewBox="0 0 1920 1080" fill="none" xmlns="http://www.w3.org/2000/svg">
<rect x="0.5" y="0.5" width="1917.67" height="1066.7" fill="#FFDE89" stroke="#F2F2F2"/>
<path opacity="0.5" fill-rule="evenodd" clip-rule="evenodd" d="M0 929.068L3.05176e-05 834.773L0 528.085C39.9944 501.258 90.7142 485.218 145.899 485.218C211.015 485.218 269.914 507.551 312.312 543.586C340.477 489.486 404.81 451.677 479.667 451.677C551.637 451.677 613.88 486.626 643.604 537.402C664.783 525.62 690.188 518.758 717.502 518.758C758.81 518.758 795.75 534.453 820.313 559.124C887.744 524.984 966.773 505.342 1051.27 505.342C1119.98 505.342 1185.08 518.332 1243.27 541.545C1281.75 436.422 1398.37 360 1536.27 360C1606.87 360 1671.9 380.034 1723.71 413.696C1754.26 397.394 1790.51 387.951 1829.4 387.951C1861.53 387.951 1891.86 394.399 1918.67 405.837V700.996V929.068H0Z" fill="url(#paint0_linear)" fill-opacity="0.5"/>
<path d="M11.8221 1079.93C8.45086 1079.61 5.46012 1078.24 3.33015 1076.21C1.25756 1074.24 0 1071.66 0 1068.82V787.975C29.005 773.897 62.6801 765.839 98.5982 765.839C137.482 765.839 173.737 775.282 204.283 791.584C256.1 757.922 321.126 737.889 391.728 737.889C529.624 737.889 646.247 814.311 684.724 919.434C742.91 896.22 808.01 883.23 876.725 883.23C961.222 883.23 1040.25 902.872 1107.68 937.012C1132.25 912.341 1169.18 896.646 1210.49 896.646C1237.81 896.646 1263.21 903.509 1284.39 915.29C1314.12 864.515 1376.36 829.566 1448.33 829.566C1523.18 829.566 1587.52 867.374 1615.68 921.474C1658.08 885.439 1716.98 863.106 1782.1 863.106C1833.67 863.106 1881.34 877.114 1920 900.842V1080H1589.34H1549.54H1314.29H1307.31H1270.49H1106.7H681.057H482.955H185.204H102.4H13.3241C12.8163 1080 12.3151 1079.98 11.8221 1079.93Z" fill="url(#paint1_linear)"/>
<rect width="38.1266" height="17.309" transform="matrix(-0.766047 0.642784 -0.766047 -0.642784 712.667 780.319)" fill="#FFDE89"/>
<rect width="36.5019" height="18.0164" transform="matrix(0.576812 0.816877 -0.895442 0.445178 381.187 313.059)" fill="#FFDE89"/>
<rect width="19.3154" height="8.03791" transform="matrix(0.899955 0.435983 -0.566845 0.823824 1573.58 180.545)" fill="#FFDE89"/>
<rect width="42.609" height="21.1032" transform="matrix(0.566845 0.823824 -0.899955 0.435983 1277.38 551.18)" fill="#FFDE89"/>
<rect width="20.9179" height="13.8668" transform="matrix(0.668167 -0.744012 0.845213 0.534429 1446.93 968.2)" fill="#FFF2D6"/>
<rect width="20.9179" height="13.8668" transform="matrix(0.668167 -0.744012 0.845213 0.534429 1195.17 197.799)" fill="#FFF2D6"/>
<rect width="22.3486" height="12.9449" transform="matrix(-0.899955 -0.435983 0.566845 -0.823824 248.41 570.636)" fill="#FFF2D6"/>
<rect width="20.9179" height="13.8668" transform="matrix(0.668167 -0.744012 0.845213 0.534429 97.2659 132.955)" fill="#FFF2D6"/>
<rect width="21.4372" height="13.5464" transform="matrix(-0.766047 -0.642784 0.766047 -0.642784 1597.99 749.194)" fill="#FFF2D6"/>
<path fill-rule="evenodd" clip-rule="evenodd" d="M1628.25 453.993C1648.88 453.993 1665.61 439.96 1665.61 422.648C1665.61 405.337 1648.88 391.304 1628.25 391.304C1607.62 391.304 1590.9 405.337 1590.9 422.648C1590.9 439.96 1607.62 453.993 1628.25 453.993ZM1628.25 442.698C1641.45 442.698 1652.14 433.722 1652.14 422.649C1652.14 411.576 1641.45 402.599 1628.25 402.599C1615.05 402.599 1604.36 411.576 1604.36 422.649C1604.36 433.722 1615.05 442.698 1628.25 442.698Z" fill="#FFF2D6"/>
<path fill-rule="evenodd" clip-rule="evenodd" d="M181.889 913.442C199.191 913.442 213.216 901.674 213.216 887.156C213.216 872.638 199.191 860.87 181.889 860.87C164.588 860.87 150.562 872.638 150.562 887.156C150.562 901.674 164.588 913.442 181.889 913.442ZM181.889 903.971C192.956 903.971 201.928 896.443 201.928 887.157C201.928 877.871 192.956 870.343 181.889 870.343C170.822 870.343 161.851 877.871 161.851 887.157C161.851 896.443 170.822 903.971 181.889 903.971Z" fill="#FFF2D6"/>
<path fill-rule="evenodd" clip-rule="evenodd" d="M194.199 338.059L156.392 306.335L118.584 338.059L156.392 369.783L194.199 338.059ZM177.246 338.059L156.392 320.561L135.537 338.059L156.392 355.558L177.246 338.059Z" fill="white"/>
<path fill-rule="evenodd" clip-rule="evenodd" d="M1874.37 805.388L1836.56 773.665L1798.75 805.388L1836.56 837.112L1874.37 805.388ZM1857.41 805.388L1836.56 787.89L1815.7 805.388L1836.56 822.887L1857.41 805.388Z" fill="white"/>
<rect width="21.4372" height="13.5464" transform="matrix(-0.766047 -0.642784 0.766047 -0.642784 1729.9 517.767)" fill="#FFF2D6"/>
<rect x="1767.52" y="216.158" width="19.4872" height="14.6755" transform="rotate(90 1767.52 216.158)" fill="#FFF2D6"/>
<defs>
<linearGradient id="paint0_linear" x1="1069.85" y1="441.827" x2="1147.36" y2="1183.64" gradientUnits="userSpaceOnUse">
<stop stop-color="#FFA760"/>
<stop offset="1" stop-color="#FFDA7D"/>
</linearGradient>
<linearGradient id="paint1_linear" x1="1070.59" y1="787.081" x2="1098.78" y2="1236.14" gradientUnits="userSpaceOnUse">
<stop stop-color="#FFA05C"/>
<stop offset="1" stop-color="#FFDA7D"/>
</linearGradient>
</defs>
</svg>
