<svg width="1920" height="1080" viewBox="0 0 1920 1080" fill="none" xmlns="http://www.w3.org/2000/svg">
<path d="M0.5 0.5H1919.5V1079.5H0.5V0.5Z" fill="#FFDE89" stroke="#F2F2F2"/>
<path opacity="0.5" fill-rule="evenodd" clip-rule="evenodd" d="M0 939.77L7.62939e-06 844.388L0 534.167C40.0222 507.031 90.7772 490.806 146 490.806C211.161 490.806 270.101 513.396 312.529 549.847C340.714 495.123 405.091 456.879 480 456.879C552.021 456.879 614.306 492.231 644.051 543.592C665.245 531.674 690.667 524.733 718 524.733C759.337 524.733 796.302 540.609 820.883 565.564C888.36 531.031 967.445 511.162 1052 511.162C1120.76 511.162 1185.91 524.302 1244.13 547.783C1282.64 441.449 1399.34 364.147 1537.33 364.147C1607.98 364.147 1673.06 384.411 1724.91 418.461C1755.48 401.971 1791.76 392.419 1830.67 392.419C1862.82 392.419 1893.18 398.941 1920 410.511V709.07V939.77H0Z" fill="url(#paint0_linear)" fill-opacity="0.5"/>
<path d="M11.8303 1079.93C8.45673 1079.61 5.46391 1078.22 3.33246 1076.17C1.25843 1074.18 0 1071.56 0 1068.69V784.611C29.0251 770.37 62.7237 762.22 98.6667 762.22C137.577 762.22 173.857 771.772 204.425 788.262C256.278 754.212 321.349 733.948 392 733.948C529.991 733.948 646.696 811.25 685.2 917.584C743.426 894.103 808.571 880.963 877.333 880.963C961.889 880.963 1040.97 900.832 1108.45 935.364C1133.03 910.41 1170 894.534 1211.33 894.534C1238.67 894.534 1264.09 901.475 1285.28 913.393C1315.03 862.032 1377.31 826.68 1449.33 826.68C1524.24 826.68 1588.62 864.924 1616.81 919.648C1659.23 883.197 1718.17 860.607 1783.33 860.607C1834.94 860.607 1883.33 869.089 1920 893.403L1919.33 1080H1590.45H1550.62H1315.2H1308.22H1271.38H1107.47H681.53H483.291H185.332H102.471H13.3334C12.8252 1080 12.3237 1079.98 11.8303 1079.93Z" fill="url(#paint1_linear)"/>
<defs>
<linearGradient id="paint0_linear" x1="1070.59" y1="446.916" x2="1149.83" y2="1197.1" gradientUnits="userSpaceOnUse">
<stop stop-color="#FFA760"/>
<stop offset="1" stop-color="#FFDA7D"/>
</linearGradient>
<linearGradient id="paint1_linear" x1="1071.33" y1="783.707" x2="1100.15" y2="1237.9" gradientUnits="userSpaceOnUse">
<stop stop-color="#FFA05C"/>
<stop offset="1" stop-color="#FFDA7D"/>
</linearGradient>
</defs>
</svg>
